<svg xmlns="http://www.w3.org/2000/svg" xmlns:xlink="http://www.w3.org/1999/xlink" width="2075" height="205.5" viewBox="0 0 2075 205.5">
  <defs>
    <clipPath id="clip-path">
      <rect id="Rectangle" width="2075" height="205.5" transform="translate(0 859.5)" fill="#f3efeb"/>
    </clipPath>
  </defs>
  <g id="Group_4" data-name="Group 4" transform="translate(0 -859.5)" clip-path="url(#clip-path)">
    <g id="Collage" transform="translate(1661.5 859.5) rotate(90)">
      <path id="Fill_1" data-name="Fill 1" d="M0,415.5H415.667V0H0Z" transform="translate(0 1246.5)" fill="#f49600"/>
      <path id="Fill_1-2" data-name="Fill 1" d="M0,415.5H415.667V0H0Z" transform="translate(415.667 2) rotate(180)" fill="#f49600"/>
      <path id="Fill_3" data-name="Fill 3" d="M0,415.5H415.667V0H0Z" transform="translate(0 831)" fill="#0070ba"/>
      <path id="Fill_5" data-name="Fill 5" d="M0,415.5H415.667V0H0Z" transform="translate(0 415.5)" fill="#0b334c"/>
      <path id="Fill_7" data-name="Fill 7" d="M0,415.5H415.667V0H0Z" transform="translate(0 1.942)" fill="#0070ba"/>
      <path id="Fill_9" data-name="Fill 9" d="M0,415.5H415.667V0H0Z" transform="translate(413.724 1246.5)" fill="#f3efeb"/>
      <path id="Fill_11" data-name="Fill 11" d="M0,415.5H415.667V0H0Z" transform="translate(413.724 417.442)" fill="#0070ba"/>
      <path id="Fill_13" data-name="Fill 13" d="M0,415.5H415.667V0H0Z" transform="translate(413.724 831)" fill="#0070ba"/>
      <path id="Fill_15" data-name="Fill 15" d="M0,415.5H415.667V0H0Z" transform="translate(413.724 1246.5)" fill="#2fb4e9"/>
      <path id="Fill_17" data-name="Fill 17" d="M0,415.5H415.667V0H0Z" transform="translate(829.391 1246.5)" fill="#2fb4e9"/>
      <path id="Fill_19" data-name="Fill 19" d="M0,415.5H415.667V0H0Z" transform="translate(829.391 831)" fill="#f49600"/>
      <path id="Fill_21" data-name="Fill 21" d="M0,415.5H415.667V0H0Z" transform="translate(829.391 417.442)" fill="#f3efeb"/>
      <path id="Fill_23" data-name="Fill 23" d="M0,415.5H415.667V0H0Z" transform="translate(829.391 1.942)" fill="#f49600"/>
      <path id="Fill_37" data-name="Fill 37" d="M0,415.5c113.862-.914,205.891-93.557,205.891-207.75h0C205.891,93.556,113.862.914,0,0H0Z" transform="translate(0 415.5)" fill="#2fb4e9"/>
      <path id="Fill_25" data-name="Fill 25" d="M0,207.75C0,322.487-93.05,415.5-207.834,415.5h0c-114.783,0-207.833-93.013-207.833-207.75h0C-415.667,93.013-322.616,0-207.834,0h0C-93.05,0,0,93.013,0,207.75" transform="translate(829.391 623.25)" fill="#f3efeb"/>
      <path id="Fill_28" data-name="Fill 28" d="M0,205.808H415.667a206.675,206.675,0,0,0-1.678-24.968h0A206.616,206.616,0,0,0,354.807,60.753h0A207.389,207.389,0,0,0,207.836,0h0C93.58,0,.859,91.993,0,205.808" transform="translate(831.333 1456.192)" fill="#f3efeb"/>
      <path id="Fill_31" data-name="Fill 31" d="M0,207.75C0,321.944,92.03,414.586,205.891,415.5h0V0C92.03.914,0,93.557,0,207.75" transform="translate(1039.167 415.5)" fill="#2fb4e9"/>
      <path id="Fill_34" data-name="Fill 34" d="M0,0V415.5c113.862-.914,205.891-93.557,205.891-207.749h0C205.891,93.557,113.862.914,0,0Z" transform="translate(829.391 0)" fill="#2fb4e9"/>
      <path id="Fill_40" data-name="Fill 40" d="M0,0C.914,113.817,93.594,205.808,207.833,205.808h0c114.239,0,206.919-91.992,207.833-205.808H0Z" transform="translate(413.724 415.5)" fill="#f3efeb"/>
      <path id="Fill_43" data-name="Fill 43" d="M0,205.808H415.667C414.752,91.992,322.072,0,207.833,0S.914,91.992,0,205.808Z" transform="translate(0 1456.192)" fill="#0070ba"/>
      <path id="Fill_43-2" data-name="Fill 43" d="M0,205.808H415.667C414.752,91.992,322.072,0,207.833,0S.914,91.992,0,205.808Z" transform="translate(415.667 -207.691) rotate(180)" fill="#0070ba"/>
      <path id="Fill_46" data-name="Fill 46" d="M0,0C.914,113.817,93.594,205.808,207.833,205.808h0c114.239,0,206.919-91.992,207.833-205.808H0Z" transform="translate(413.724 1246.5)" fill="#f3efeb"/>
    </g>
  </g>
</svg>
